<svg xmlns="http://www.w3.org/2000/svg" width="48" height="48" viewBox="0 0 48 48">
  <rect width="48" height="48" fill="#141414"/>
  <g transform="translate(7.00,7.00) scale(1.4167)">
    <g transform="skewX(-7)" transform-origin="12 12">
      <path fill="#FFFFE6" fill-rule="evenodd" d="M6 3 H13.6 C16.6 3 18.1 4.9 18.1 7.5 C18.1 9.4 17.1 10.8 15.2 11.4 C17.5 12 18.8 13.6 18.8 16.1 C18.8 19.3 16.8 21 13 21 H6 Z M9.4 6.1 H12.9 C14.1 6.1 14.7 6.8 14.7 7.9 C14.7 9.1 14.1 9.7 12.9 9.7 H9.4 Z M9.4 13.7 H13.1 C14.5 13.7 15.2 14.5 15.2 15.8 C15.2 17.2 14.5 17.9 13.1 17.9 H9.4 Z"/>
    </g>
  </g>
</svg>
