<svg xmlns="http://www.w3.org/2000/svg" viewBox="0 0 29 35" fill="none" role="img" aria-label="Fresno Studio">
  <g stroke="#FFFFE6" stroke-width="0.817322" stroke-miterlimit="10" stroke-linecap="round" stroke-linejoin="round">
    <path d="M12.0735 23.2946C12.0735 23.2946 12.7124 23.032 12.9254 23.1633C13.1384 23.2946 13.7774 23.7322 14.246 23.7322C14.8423 23.7322 15.4387 23.207 15.7795 23.207C16.1203 23.207 16.6314 23.3821 16.6314 23.3821C16.674 23.2946 16.674 23.1633 16.674 23.032C16.674 22.5944 16.5036 22.2444 16.3758 21.8068"/>
    <path d="M16.8445 15.6805C17.5686 15.8555 19.1448 14.2365 19.7837 14.2365C20.3801 14.2802 21.0616 15.4179 21.0616 15.4179"/>
    <path d="M4.87456 18.2624C4.87456 18.1311 3.80963 16.8621 3.29846 17.1246C2.82988 17.3434 2.61689 19.5314 2.61689 19.8815C2.5743 20.2315 3.59664 21.7193 3.76703 22.3757C3.93742 23.0321 3.89482 24.6949 5.25794 24.5636"/>
    <path d="M23.4045 18.2624C23.4045 18.1311 24.4694 16.8621 24.9806 17.1246C25.4492 17.3434 25.6622 19.5314 25.6622 19.8815C25.7048 20.2315 24.6824 21.7193 24.512 22.3757C24.3416 23.0321 24.3842 24.6949 23.0211 24.5636"/>
    <path d="M5.51355 24.3447C5.51355 24.3447 8.53798 29.1582 10.0289 29.3332C10.2845 29.377 9.34733 28.1079 10.0715 26.9702C10.4975 26.3138 11.605 25.3511 14.1183 25.3511C15.6944 25.3511 18.0798 26.0075 18.5058 26.8389C18.9744 27.7141 18.5058 29.2019 18.5058 29.2019C18.5058 29.2019 22.3396 26.6202 22.8508 23.9071"/>
    <path d="M23.4045 18.1747C23.4045 18.1747 23.0637 25.3949 22.4673 27.1452C22.2117 27.9329 21.3598 30.5147 18.5909 32.2213C18.5909 32.2213 18.5483 32.2213 18.5483 32.265C17.6538 32.7901 16.8018 34.4092 14.2886 34.4092C14.2034 34.4092 14.1182 34.4092 14.033 34.4092C13.9478 34.4092 13.8626 34.4092 13.7774 34.4092C11.2641 34.4092 10.966 32.8339 10.0714 32.3088C10.0714 32.3088 10.0288 32.3088 10.0288 32.265C7.25998 30.5584 6.57841 27.8016 6.15244 27.1015C5.34308 25.745 4.87451 18.1747 4.87451 18.1747"/>
    <path d="M12.0309 16.1618L8.75091 15.4617C8.75091 15.4617 7.60078 15.943 7.1748 16.862"/>
    <path d="M13.2237 17.2559C13.3941 17.6497 13.607 17.9998 13.607 18.4811C13.607 18.7437 13.1811 19.3125 13.1811 19.6626C13.1811 20.1002 13.0533 20.669 13.3941 21.1066"/>
    <path d="M11.9457 27.4078C12.5846 27.4953 11.3067 27.6266 15.9924 27.4516C16.1202 27.4516 16.3332 27.4078 16.4184 27.3203"/>
    <path d="M4.2783 17.2121C4.15051 13.0987 4.2357 13.2738 4.3209 8.63534C4.3635 6.05358 6.91935 4.08443 10.1142 3.07798L11.1365 0.671244L13.4794 1.4589L16.376 0.408691C16.376 0.408691 19.2726 0.890038 18.8041 1.98401C18.7189 2.2028 23.9158 4.60953 24.1288 6.84123C24.4695 10.0794 24.4269 17.2996 24.4269 17.2996"/>
    <path d="M4.83191 18.0872C4.83191 18.0872 5.0023 16.5994 6.53581 13.6238C7.89893 10.9983 5.85425 9.64178 8.02673 7.2788C8.02673 7.2788 10.3696 6.49114 11.6049 7.67263C12.8828 8.81036 14.3738 8.46029 15.9925 8.28525"/>
    <path d="M23.4044 17.9122C23.4044 17.9122 23.5322 15.768 21.7857 12.9237C20.0818 10.0794 23.7026 9.72929 18.7613 7.14752C18.7613 7.14752 18.2927 7.71639 15.9924 8.32901"/>
    <path d="M12.8829 29.7708C12.8829 29.7708 13.4367 29.2895 14.1609 29.377C14.885 29.5082 15.098 29.7708 15.098 29.7708"/>
  </g>
  <path fill="#FFFFE6" d="M9.4325 17.7809C9.4325 18.1747 9.73068 18.481 10.1141 18.481C10.4974 18.481 10.7956 18.1747 10.7956 17.7809C10.7956 17.3871 10.4974 17.0807 10.1141 17.0807C9.77328 17.0807 9.4325 17.3871 9.4325 17.7809Z"/>
  <path fill="#FFFFE6" d="M17.8242 17.7809C17.8242 18.1747 18.1224 18.481 18.5058 18.481C18.8892 18.481 19.1873 18.1747 19.1873 17.7809C19.1873 17.3871 18.8892 17.0807 18.5058 17.0807C18.165 17.0807 17.8242 17.3871 17.8242 17.7809Z"/>
  <path stroke="#FFFFE6" stroke-width="0.40789" stroke-miterlimit="10" d="M14.8424 23.9947C14.8424 24.3448 14.5442 24.6511 14.2034 24.6511C13.8626 24.6511 13.5645 24.3448 13.5645 23.9947C13.5645 23.6447 14.2034 23.7759 14.2034 23.7759C14.2034 23.7759 14.8424 23.6447 14.8424 23.9947Z"/>
  <rect y="15.366" width="28.3338" height="4.71628" fill="#003DFF"/>
</svg>
