<svg xmlns="http://www.w3.org/2000/svg" viewBox="0 0 94.4756 94.4766" width="94.4756" height="94.4766" fill="none"><path d="M47.8486 0.00390625C73.6559 0.330987 94.4755 21.3533 94.4756 47.2383C94.4756 73.3271 73.3269 94.4763 47.2383 94.4766L46.6279 94.4727C20.8203 94.146 3.6835e-07 73.1236 0 47.2383C5.5692e-05 21.1493 21.1495 3.71243e-07 47.2383 0L47.8486 0.00390625ZM47.2383 3.37402C23.013 3.37402 3.37408 23.0128 3.37402 47.2383C3.37402 71.4638 23.013 91.1025 47.2383 91.1025C71.4633 91.1022 91.1016 71.4636 91.1016 47.2383C91.1015 23.013 71.4633 3.37432 47.2383 3.37402ZM82.0742 51.0771H79.1387C79.0081 68.586 64.7758 82.7391 47.2363 82.7393C29.6988 82.7392 15.4677 68.5892 15.334 51.083H12.4043V47.709H21.8262V51.083H18.709C18.8426 66.7257 31.5623 79.3652 47.2363 79.3652C62.9123 79.3651 75.6342 66.7225 75.7646 51.0771H72.6523V47.7031H82.0742V51.0771ZM66.9141 22.0811C69.9093 22.0811 71.2642 23.8867 70.7715 27.0439L69.1729 37.3096C68.68 40.4698 66.7617 42.2723 63.7637 42.2725C60.7684 42.2725 59.4124 40.4699 59.9053 37.3096L61.5039 27.0439C61.9939 23.8867 63.913 22.0811 66.9141 22.0811ZM71.5654 39.2285C71.7825 39.2285 71.9763 39.2696 72.1523 39.3486C72.3252 39.4246 72.4687 39.5326 72.5889 39.6699C72.7062 39.8075 72.7948 39.966 72.8477 40.1533C72.9004 40.3347 72.9092 40.5336 72.874 40.7441C72.8418 40.9547 72.7715 41.1537 72.6602 41.3438C72.5487 41.531 72.4133 41.6955 72.249 41.833C72.0906 41.9676 71.9084 42.0782 71.7119 42.1572C71.5124 42.2333 71.3098 42.2715 71.0928 42.2715C70.873 42.2714 70.6768 42.2332 70.501 42.1572C70.3221 42.0783 70.1749 41.9675 70.0576 41.833C69.9373 41.6955 69.8526 41.531 69.7998 41.3438C69.75 41.1536 69.7373 40.9547 69.7725 40.7441C69.8047 40.5335 69.8759 40.3347 69.9873 40.1533C70.0958 39.9661 70.2303 39.8074 70.3916 39.6699C70.5558 39.5324 70.7352 39.4247 70.9375 39.3486C71.1399 39.2696 71.3513 39.2285 71.5654 39.2285ZM29.251 22.3086C32.4164 22.3086 33.5397 23.8035 33.0645 26.8496L32.959 27.5547C32.6392 29.5854 31.8271 30.8826 30.3662 31.5322C31.903 32.179 32.3079 33.6738 31.9824 35.7598L31.7334 37.3672C31.2581 40.4132 29.421 42.0518 26.3701 42.0518H21.5674L24.6455 22.3086H29.251ZM53.4229 30.9092L58.7598 22.3086H61.8105L56.1953 31.1084L58.7363 42.0518H55.5967L53.8574 34.1836L52.6338 35.9863L51.6865 42.0518H48.6357L51.71 22.3086H54.7637L53.4229 30.9092ZM35.1104 42.0508H32.0586L35.1367 22.3105H38.1875L35.1104 42.0508ZM47.2178 42.0352H45.6768V42.0371H36.6338L36.6357 42.0352H36.5332L42.7178 22.2949H47.1885L47.2178 42.0352ZM66.4785 24.9082C65.5046 24.9082 64.8119 25.4433 64.5918 26.8535L62.9316 37.5146C62.7118 38.9219 63.24 39.46 64.2109 39.46C65.1817 39.4599 65.8737 38.9217 66.0938 37.5146L67.7578 26.8535C67.9777 25.4434 67.4494 24.9082 66.4785 24.9082ZM25.0586 39.2314H26.8076C27.8342 39.2314 28.4616 38.7518 28.6934 37.2832L28.9609 35.5654C29.2455 33.7309 28.7525 33.1691 27.3652 33.1689H26.0068L25.0586 39.2314ZM40.4229 38.4541L40.2275 39.1006H44.1641L44.1699 38.4541V35.7764L44.2549 25.792L40.4229 38.4541ZM26.4473 30.3467H27.6377C28.7759 30.3467 29.5474 29.8377 29.7939 28.2607L29.9639 27.1602C30.1839 25.7498 29.8118 25.129 28.7295 25.1289H27.2598L26.4473 30.3467Z" fill="#000"/></svg>
