<svg width="112" height="79" viewBox="0 0 112 79" fill="none" xmlns="http://www.w3.org/2000/svg">
<g id="Home">
<g id="Group 1">
<g id="sticker 8">
<rect width="76.1483" height="32.376" transform="translate(35.333 39.2371) rotate(5.68736)" fill="white"/>
<path id="Union" d="M99.0445 48.1851C103.015 48.5807 104.574 51.153 103.504 55.2732L100.028 68.6705C98.9574 72.795 96.1758 74.9319 92.2012 74.5361C88.2307 74.1405 86.6725 71.5714 87.7431 67.4471L91.2177 54.0497C92.2841 49.9289 95.066 47.7889 99.0445 48.1851ZM102.958 71.5326C103.246 71.5613 103.497 71.6415 103.72 71.7694C103.939 71.8931 104.115 72.0555 104.256 72.2537C104.394 72.4514 104.489 72.6721 104.535 72.9272C104.581 73.1746 104.566 73.4402 104.491 73.7148C104.421 73.9898 104.301 74.2441 104.129 74.4815C103.956 74.715 103.756 74.9148 103.52 75.0755C103.292 75.2329 103.036 75.3563 102.766 75.4351C102.491 75.5096 102.217 75.5336 101.929 75.5049C101.638 75.4759 101.383 75.3991 101.159 75.2751C100.933 75.1468 100.752 74.98 100.614 74.7861C100.473 74.5879 100.382 74.3591 100.337 74.1039C100.296 73.8453 100.307 73.58 100.381 73.3055C100.452 73.0304 100.571 72.7753 100.743 72.5495C100.911 72.3157 101.112 72.1246 101.344 71.9636C101.58 71.8031 101.831 71.6832 102.109 71.609C102.388 71.531 102.674 71.5043 102.958 71.5326ZM49.0986 43.5123C53.2949 43.9302 54.5872 46.0613 53.555 50.0368L53.322 50.9577C52.63 53.6076 51.3813 55.2187 49.3589 55.8871C51.3111 56.9473 51.6504 58.983 50.9434 61.7056L50.4009 63.8027C49.3687 67.7782 46.7176 69.7079 42.673 69.3052L36.3061 68.6711L42.9931 42.9042L49.0986 43.5123ZM80.0048 58.1049L88.2147 47.4079L92.2591 47.8107L83.6538 58.7343L85.577 73.578L81.4159 73.1636L80.1488 62.5031L78.2889 64.7312L76.2316 72.6473L72.1872 72.2445L78.8693 46.4772L82.9176 46.8803L80.0048 58.1049ZM70.3091 72.0536L68.2539 71.8489L68.2536 71.8518L56.265 70.6579L56.2673 70.6551L56.1448 70.6429L66.9498 45.2901L72.8765 45.8803L70.3091 72.0536ZM54.2664 70.4559L50.222 70.0531L56.9076 44.29L60.9521 44.6928L54.2664 70.4559ZM98.0881 51.8663C96.7971 51.7379 95.8086 52.3568 95.3308 54.1973L91.7223 68.1103C91.2449 69.947 91.874 70.73 93.1612 70.8582C94.4483 70.9863 95.437 70.3643 95.9145 68.5278L99.5268 54.6152C100.005 52.7744 99.3753 51.9945 98.0881 51.8663ZM41.3069 65.3927L43.6246 65.6236C44.9858 65.7591 45.882 65.2055 46.3832 63.2888L46.9637 61.0472C47.5831 58.6526 47.0038 57.8431 45.1645 57.6598L43.3639 57.4805L41.3069 65.3927ZM61.7748 66.4085L61.4299 67.2408L66.6482 67.7605L66.7414 66.9032L67.095 63.3533L68.5259 50.1283L61.7748 66.4085ZM44.3194 53.7983L45.8985 53.9555C47.4073 54.1057 48.497 53.5327 49.0319 51.4745L49.4026 50.0384C49.8805 48.1977 49.4683 47.3265 48.0333 47.1836L46.0849 46.9895L44.3194 53.7983Z" fill="#191715"/>
</g>
<g id="sticker 7">
<rect width="76.1483" height="32.376" transform="translate(0 19.7087) rotate(-15)" fill="#C6DBF9"/>
<path id="Union_2" d="M62.7642 5.57244C66.6186 4.53974 68.9857 6.39625 69.4401 10.6292L70.9212 24.3895C71.3766 28.6262 69.53 31.6077 65.672 32.6416C61.8176 33.6744 59.4516 31.8216 58.9961 27.5849L57.5141 13.8248C57.0559 9.59276 58.9022 6.60726 62.7642 5.57244ZM74.6733 26.032C74.9526 25.9572 75.2158 25.9435 75.4694 25.9845C75.7183 26.0227 75.9404 26.1125 76.1426 26.248C76.341 26.3845 76.5096 26.5576 76.6421 26.7804C76.7725 26.9955 76.8524 27.2485 76.8798 27.5316C76.9109 27.8136 76.8888 28.094 76.8111 28.377C76.7322 28.6564 76.6145 28.9143 76.4505 29.1479C76.2931 29.3757 76.0976 29.5814 75.872 29.7508C75.6415 29.9175 75.3937 30.0367 75.1143 30.1116C74.8313 30.1873 74.5654 30.2058 74.3127 30.1686C74.0553 30.1287 73.8284 30.0361 73.631 29.9034C73.4288 29.7679 73.262 29.5862 73.1295 29.3635C72.9998 29.136 72.9161 28.884 72.8887 28.6009C72.8576 28.3187 72.8805 28.0385 72.9614 27.7666C73.0365 27.4882 73.1553 27.2381 73.3155 27.0055C73.4795 26.7719 73.6723 26.571 73.9064 26.4033C74.1396 26.2318 74.3977 26.1058 74.6733 26.032ZM14.388 18.8452C18.4613 17.7538 20.4232 19.291 20.862 23.3747L20.9693 24.3186C21.258 27.042 20.6589 28.9904 19.0031 30.3301C21.2041 30.6324 22.2408 32.4176 22.5412 35.2146L22.7743 37.3673C23.213 41.4511 21.4145 44.1929 17.4885 45.245L11.3081 46.901L8.46037 20.4335L14.388 18.8452ZM48.4565 21.5788L52.3581 8.67112L56.285 7.61891L52.0925 20.8785L59.1356 34.0857L55.0964 35.168L50.1449 25.6425L49.1921 28.3839L50.064 36.5164L46.138 37.5684L43.2865 11.1018L47.2163 10.0489L48.4565 21.5788ZM44.3136 38.0532L42.3176 38.588L42.3184 38.5908L30.682 41.7088L30.6831 41.7055L30.5643 41.7373L31.7162 14.2021L37.4693 12.6606L44.3136 38.0532ZM28.7409 42.2259L24.815 43.2778L21.9682 16.8141L25.8942 15.7621L28.7409 42.2259ZM63.1699 9.35411C61.9167 9.69 61.2107 10.6182 61.4139 12.5089L62.9531 26.7996C63.1553 28.6866 64.0206 29.1978 65.2702 28.863C66.5195 28.5281 67.2246 27.596 67.0224 25.7092L65.487 11.4175C65.2838 9.52662 64.4195 9.01929 63.1699 9.35411ZM14.8284 42.0674L17.0781 41.4646C18.3994 41.1105 19.0423 40.276 18.8341 38.3058L18.5852 36.0037C18.3188 33.5449 17.4907 32.9921 15.7054 33.4703L13.9575 33.9387L14.8284 42.0674ZM34.3354 35.7871L34.3067 36.6875L39.3721 35.3302L39.1565 34.4952L38.2332 31.0494L34.8999 18.1716L34.3354 35.7871ZM13.5509 30.1572L15.0837 29.7465C16.5483 29.354 17.3651 28.4321 17.1384 26.3176L16.9778 24.8431C16.7746 22.9526 16.0819 22.2829 14.6892 22.6559L12.797 23.1629L13.5509 30.1572Z" fill="#191715"/>
</g>
</g>
</g>
</svg>
